<mxfile host="app.diagrams.net" agent="Mozilla/5.0 (Macintosh; Intel Mac OS X 10_15_7) AppleWebKit/537.36 (KHTML, like Gecko) Chrome/131.0.0.0 Safari/537.36" version="26.0.14">
  <diagram id="C5RBs43oDa-KdzZeNtuy" name="Page-1">
    <mxGraphModel dx="1362" dy="1023" grid="1" gridSize="10" guides="1" tooltips="1" connect="1" arrows="1" fold="1" page="1" pageScale="1" pageWidth="827" pageHeight="1169" math="0" shadow="0">
      <root>
        <mxCell id="WIyWlLk6GJQsqaUBKTNV-0" />
        <mxCell id="WIyWlLk6GJQsqaUBKTNV-1" parent="WIyWlLk6GJQsqaUBKTNV-0" />
        <mxCell id="CZvadwM1OejGpin_CvOd-0" value="Backend" style="verticalAlign=top;align=left;spacingTop=8;spacingLeft=2;spacingRight=12;shape=cube;size=10;direction=south;fontStyle=4;html=1;whiteSpace=wrap;" vertex="1" parent="WIyWlLk6GJQsqaUBKTNV-1">
          <mxGeometry x="50" y="230" width="270" height="700" as="geometry" />
        </mxCell>
        <mxCell id="CZvadwM1OejGpin_CvOd-1" value="Frontend" style="verticalAlign=top;align=left;spacingTop=8;spacingLeft=2;spacingRight=12;shape=cube;size=10;direction=south;fontStyle=4;html=1;whiteSpace=wrap;" vertex="1" parent="WIyWlLk6GJQsqaUBKTNV-1">
          <mxGeometry x="530" y="220" width="250" height="730" as="geometry" />
        </mxCell>
        <mxCell id="CZvadwM1OejGpin_CvOd-2" value="&lt;p style=&quot;margin:0px;margin-top:6px;text-align:center;&quot;&gt;&lt;b&gt;ComponentService&lt;/b&gt;&lt;/p&gt;&lt;hr size=&quot;1&quot; style=&quot;border-style:solid;&quot;&gt;&lt;p style=&quot;margin:0px;margin-left:8px;&quot;&gt;&lt;br&gt;&lt;/p&gt;" style="align=left;overflow=fill;html=1;dropTarget=0;whiteSpace=wrap;" vertex="1" parent="WIyWlLk6GJQsqaUBKTNV-1">
          <mxGeometry x="95" y="320" width="180" height="90" as="geometry" />
        </mxCell>
        <mxCell id="CZvadwM1OejGpin_CvOd-3" value="" style="shape=component;jettyWidth=8;jettyHeight=4;" vertex="1" parent="CZvadwM1OejGpin_CvOd-2">
          <mxGeometry x="1" width="20" height="20" relative="1" as="geometry">
            <mxPoint x="-24" y="4" as="offset" />
          </mxGeometry>
        </mxCell>
        <mxCell id="CZvadwM1OejGpin_CvOd-4" value="&lt;p style=&quot;margin:0px;margin-top:6px;text-align:center;&quot;&gt;&lt;b&gt;ProjectService&lt;/b&gt;&lt;/p&gt;&lt;hr size=&quot;1&quot; style=&quot;border-style:solid;&quot;&gt;&lt;p style=&quot;margin:0px;margin-left:8px;&quot;&gt;&lt;br&gt;&lt;/p&gt;" style="align=left;overflow=fill;html=1;dropTarget=0;whiteSpace=wrap;" vertex="1" parent="WIyWlLk6GJQsqaUBKTNV-1">
          <mxGeometry x="95" y="430" width="180" height="90" as="geometry" />
        </mxCell>
        <mxCell id="CZvadwM1OejGpin_CvOd-5" value="" style="shape=component;jettyWidth=8;jettyHeight=4;" vertex="1" parent="CZvadwM1OejGpin_CvOd-4">
          <mxGeometry x="1" width="20" height="20" relative="1" as="geometry">
            <mxPoint x="-24" y="4" as="offset" />
          </mxGeometry>
        </mxCell>
        <mxCell id="CZvadwM1OejGpin_CvOd-6" value="&lt;p style=&quot;margin:0px;margin-top:6px;text-align:center;&quot;&gt;&lt;b&gt;ETLDesigner&lt;/b&gt;&lt;/p&gt;" style="align=left;overflow=fill;html=1;dropTarget=0;whiteSpace=wrap;" vertex="1" parent="WIyWlLk6GJQsqaUBKTNV-1">
          <mxGeometry x="565" y="340" width="180" height="250" as="geometry" />
        </mxCell>
        <mxCell id="CZvadwM1OejGpin_CvOd-7" value="" style="shape=component;jettyWidth=8;jettyHeight=4;" vertex="1" parent="CZvadwM1OejGpin_CvOd-6">
          <mxGeometry x="1" width="20" height="20" relative="1" as="geometry">
            <mxPoint x="-24" y="4" as="offset" />
          </mxGeometry>
        </mxCell>
        <mxCell id="CZvadwM1OejGpin_CvOd-8" value="" style="rounded=0;orthogonalLoop=1;jettySize=auto;html=1;endArrow=halfCircle;endFill=0;endSize=6;strokeWidth=1;sketch=0;exitX=0;exitY=0.5;exitDx=0;exitDy=0;" edge="1" target="CZvadwM1OejGpin_CvOd-10" parent="WIyWlLk6GJQsqaUBKTNV-1" source="CZvadwM1OejGpin_CvOd-6">
          <mxGeometry relative="1" as="geometry">
            <mxPoint x="430" y="525" as="sourcePoint" />
          </mxGeometry>
        </mxCell>
        <mxCell id="CZvadwM1OejGpin_CvOd-9" value="" style="rounded=0;orthogonalLoop=1;jettySize=auto;html=1;endArrow=oval;endFill=0;sketch=0;sourcePerimeterSpacing=0;targetPerimeterSpacing=0;endSize=10;exitX=1;exitY=0.5;exitDx=0;exitDy=0;" edge="1" target="CZvadwM1OejGpin_CvOd-10" parent="WIyWlLk6GJQsqaUBKTNV-1" source="CZvadwM1OejGpin_CvOd-4">
          <mxGeometry relative="1" as="geometry">
            <mxPoint x="390" y="525" as="sourcePoint" />
          </mxGeometry>
        </mxCell>
        <mxCell id="CZvadwM1OejGpin_CvOd-10" value="" style="ellipse;whiteSpace=wrap;html=1;align=center;aspect=fixed;fillColor=none;strokeColor=none;resizable=0;perimeter=centerPerimeter;rotatable=0;allowArrows=0;points=[];outlineConnect=1;" vertex="1" parent="WIyWlLk6GJQsqaUBKTNV-1">
          <mxGeometry x="350" y="470" width="10" height="10" as="geometry" />
        </mxCell>
        <mxCell id="CZvadwM1OejGpin_CvOd-11" value="" style="rounded=0;orthogonalLoop=1;jettySize=auto;html=1;endArrow=halfCircle;endFill=0;endSize=6;strokeWidth=1;sketch=0;exitX=0;exitY=0.25;exitDx=0;exitDy=0;" edge="1" parent="WIyWlLk6GJQsqaUBKTNV-1" source="CZvadwM1OejGpin_CvOd-6">
          <mxGeometry relative="1" as="geometry">
            <mxPoint x="410" y="330" as="sourcePoint" />
            <mxPoint x="360" y="360" as="targetPoint" />
          </mxGeometry>
        </mxCell>
        <mxCell id="CZvadwM1OejGpin_CvOd-12" value="" style="rounded=0;orthogonalLoop=1;jettySize=auto;html=1;endArrow=oval;endFill=0;sketch=0;sourcePerimeterSpacing=0;targetPerimeterSpacing=0;endSize=10;exitX=1;exitY=0.5;exitDx=0;exitDy=0;" edge="1" parent="WIyWlLk6GJQsqaUBKTNV-1" source="CZvadwM1OejGpin_CvOd-2">
          <mxGeometry relative="1" as="geometry">
            <mxPoint x="390" y="525" as="sourcePoint" />
            <mxPoint x="360" y="360" as="targetPoint" />
          </mxGeometry>
        </mxCell>
        <mxCell id="CZvadwM1OejGpin_CvOd-13" value="" style="ellipse;whiteSpace=wrap;html=1;align=center;aspect=fixed;fillColor=none;strokeColor=none;resizable=0;perimeter=centerPerimeter;rotatable=0;allowArrows=0;points=[];outlineConnect=1;" vertex="1" parent="WIyWlLk6GJQsqaUBKTNV-1">
          <mxGeometry x="405" y="520" width="10" height="10" as="geometry" />
        </mxCell>
        <mxCell id="CZvadwM1OejGpin_CvOd-16" value="&lt;p style=&quot;margin:0px;margin-top:6px;text-align:center;&quot;&gt;&lt;b&gt;ExecutionService&lt;/b&gt;&lt;/p&gt;" style="align=left;overflow=fill;html=1;dropTarget=0;whiteSpace=wrap;" vertex="1" parent="WIyWlLk6GJQsqaUBKTNV-1">
          <mxGeometry x="95" y="550" width="180" height="90" as="geometry" />
        </mxCell>
        <mxCell id="CZvadwM1OejGpin_CvOd-17" value="" style="shape=component;jettyWidth=8;jettyHeight=4;" vertex="1" parent="CZvadwM1OejGpin_CvOd-16">
          <mxGeometry x="1" width="20" height="20" relative="1" as="geometry">
            <mxPoint x="-24" y="4" as="offset" />
          </mxGeometry>
        </mxCell>
        <mxCell id="CZvadwM1OejGpin_CvOd-18" value="" style="rounded=0;orthogonalLoop=1;jettySize=auto;html=1;endArrow=halfCircle;endFill=0;endSize=6;strokeWidth=1;sketch=0;exitX=0;exitY=0.75;exitDx=0;exitDy=0;" edge="1" parent="WIyWlLk6GJQsqaUBKTNV-1" target="CZvadwM1OejGpin_CvOd-20" source="CZvadwM1OejGpin_CvOd-6">
          <mxGeometry relative="1" as="geometry">
            <mxPoint x="560" y="569" as="sourcePoint" />
          </mxGeometry>
        </mxCell>
        <mxCell id="CZvadwM1OejGpin_CvOd-19" value="" style="rounded=0;orthogonalLoop=1;jettySize=auto;html=1;endArrow=oval;endFill=0;sketch=0;sourcePerimeterSpacing=0;targetPerimeterSpacing=0;endSize=10;exitX=1;exitY=0.5;exitDx=0;exitDy=0;" edge="1" parent="WIyWlLk6GJQsqaUBKTNV-1" target="CZvadwM1OejGpin_CvOd-20" source="CZvadwM1OejGpin_CvOd-16">
          <mxGeometry relative="1" as="geometry">
            <mxPoint x="275" y="596" as="sourcePoint" />
          </mxGeometry>
        </mxCell>
        <mxCell id="CZvadwM1OejGpin_CvOd-20" value="" style="ellipse;whiteSpace=wrap;html=1;align=center;aspect=fixed;fillColor=none;strokeColor=none;resizable=0;perimeter=centerPerimeter;rotatable=0;allowArrows=0;points=[];outlineConnect=1;" vertex="1" parent="WIyWlLk6GJQsqaUBKTNV-1">
          <mxGeometry x="350" y="591" width="10" height="10" as="geometry" />
        </mxCell>
        <mxCell id="CZvadwM1OejGpin_CvOd-22" value="&lt;p style=&quot;margin:0px;margin-top:6px;text-align:center;&quot;&gt;&lt;b&gt;Palette&lt;/b&gt;&lt;/p&gt;" style="align=left;overflow=fill;html=1;dropTarget=0;whiteSpace=wrap;" vertex="1" parent="WIyWlLk6GJQsqaUBKTNV-1">
          <mxGeometry x="610" y="380" width="110" height="50" as="geometry" />
        </mxCell>
        <mxCell id="CZvadwM1OejGpin_CvOd-23" value="" style="shape=component;jettyWidth=8;jettyHeight=4;" vertex="1" parent="CZvadwM1OejGpin_CvOd-22">
          <mxGeometry x="1" width="20" height="20" relative="1" as="geometry">
            <mxPoint x="-24" y="4" as="offset" />
          </mxGeometry>
        </mxCell>
        <mxCell id="CZvadwM1OejGpin_CvOd-24" value="&lt;p style=&quot;margin:0px;margin-top:6px;text-align:center;&quot;&gt;&lt;b&gt;Sheet&lt;/b&gt;&lt;/p&gt;" style="align=left;overflow=fill;html=1;dropTarget=0;whiteSpace=wrap;" vertex="1" parent="WIyWlLk6GJQsqaUBKTNV-1">
          <mxGeometry x="610" y="440" width="110" height="50" as="geometry" />
        </mxCell>
        <mxCell id="CZvadwM1OejGpin_CvOd-25" value="" style="shape=component;jettyWidth=8;jettyHeight=4;" vertex="1" parent="CZvadwM1OejGpin_CvOd-24">
          <mxGeometry x="1" width="20" height="20" relative="1" as="geometry">
            <mxPoint x="-24" y="4" as="offset" />
          </mxGeometry>
        </mxCell>
        <mxCell id="CZvadwM1OejGpin_CvOd-26" value="&lt;p style=&quot;margin:0px;margin-top:6px;text-align:center;&quot;&gt;&lt;b&gt;ProjectOverview&lt;/b&gt;&lt;/p&gt;" style="align=left;overflow=fill;html=1;dropTarget=0;whiteSpace=wrap;" vertex="1" parent="WIyWlLk6GJQsqaUBKTNV-1">
          <mxGeometry x="565" y="610" width="180" height="70" as="geometry" />
        </mxCell>
        <mxCell id="CZvadwM1OejGpin_CvOd-27" value="" style="shape=component;jettyWidth=8;jettyHeight=4;" vertex="1" parent="CZvadwM1OejGpin_CvOd-26">
          <mxGeometry x="1" width="20" height="20" relative="1" as="geometry">
            <mxPoint x="-24" y="4" as="offset" />
          </mxGeometry>
        </mxCell>
        <mxCell id="CZvadwM1OejGpin_CvOd-28" value="" style="rounded=0;orthogonalLoop=1;jettySize=auto;html=1;endArrow=halfCircle;endFill=0;endSize=6;strokeWidth=1;sketch=0;fontSize=12;curved=1;exitX=0;exitY=0.5;exitDx=0;exitDy=0;entryX=0.8;entryY=1.1;entryDx=0;entryDy=0;entryPerimeter=0;" edge="1" target="CZvadwM1OejGpin_CvOd-10" parent="WIyWlLk6GJQsqaUBKTNV-1" source="CZvadwM1OejGpin_CvOd-26">
          <mxGeometry relative="1" as="geometry">
            <mxPoint x="425" y="525" as="sourcePoint" />
          </mxGeometry>
        </mxCell>
        <mxCell id="CZvadwM1OejGpin_CvOd-29" value="" style="ellipse;whiteSpace=wrap;html=1;align=center;aspect=fixed;fillColor=none;strokeColor=none;resizable=0;perimeter=centerPerimeter;rotatable=0;allowArrows=0;points=[];outlineConnect=1;" vertex="1" parent="WIyWlLk6GJQsqaUBKTNV-1">
          <mxGeometry x="400" y="520" width="10" height="10" as="geometry" />
        </mxCell>
      </root>
    </mxGraphModel>
  </diagram>
</mxfile>
